<svg width="34" height="34" viewBox="0 0 34 34" fill="none" xmlns="http://www.w3.org/2000/svg">
<g clip-path="url(#clip0)">
<path d="M16.9831 0.0100098C14.7557 0.0100098 12.9497 1.82272 12.9497 4.04345C12.9497 6.27088 14.7557 8.08359 16.9831 8.08359C19.2106 8.08359 21.0166 6.27088 21.0166 4.05014C21.0166 1.82272 19.2106 0.0100098 16.9831 0.0100098ZM16.9831 6.19061C15.7992 6.19061 14.836 5.2274 14.836 4.04345C14.836 2.85951 15.7992 1.8963 16.9831 1.8963C18.1671 1.8963 19.1303 2.85951 19.1303 4.04345C19.1303 5.2274 18.1671 6.19061 16.9831 6.19061Z" fill="#00D29D"/>
<path d="M30.3412 24.9331V21.923C30.3412 21.4013 29.9197 20.9799 29.398 20.9799H17.9264V19.0936H24.0669C24.5886 19.0936 25.01 18.6722 25.01 18.1505V14.4113C25.01 13.214 24.408 12.1237 23.4047 11.4949C21.485 10.2842 19.2642 9.64209 16.9833 9.64209C14.7024 9.64209 12.4816 10.2842 10.5619 11.4949C9.55854 12.1304 8.95654 13.2207 8.95654 14.4113V18.1505C8.95654 18.6722 9.37794 19.0936 9.89968 19.0936H16.0401V20.9799H4.57527C4.05353 20.9799 3.63212 21.4013 3.63212 21.923V24.9331C1.55854 25.3678 1.62948e-05 27.214 1.62948e-05 29.4147C-0.00667267 31.9364 2.04684 33.9899 4.57527 33.9899C7.10369 33.9899 9.15721 31.9364 9.15721 29.408C9.15721 27.2073 7.59868 25.3612 5.5251 24.9264V22.8595H16.0468V24.9264C13.9733 25.3612 12.4147 27.2073 12.4147 29.408C12.4147 31.9297 14.4682 33.9899 16.9967 33.9899C19.5184 33.9899 21.5786 31.9364 21.5786 29.408C21.5786 27.2073 20.0201 25.3612 17.9465 24.9264V22.8595H28.4682V24.9264C26.3947 25.3612 24.8361 27.2073 24.8361 29.408C24.8361 31.9297 26.8896 33.9899 29.4181 33.9899C31.9465 33.9899 34 31.9364 34 29.408C33.9733 27.2073 32.4147 25.3678 30.3412 24.9331ZM7.26423 29.408C7.26423 30.8929 6.06022 32.0969 4.57527 32.0969C3.09032 32.0969 1.8863 30.8929 1.8863 29.408C1.8863 27.923 3.09032 26.719 4.57527 26.719C6.05353 26.719 7.26423 27.9297 7.26423 29.408ZM10.8428 17.2006V14.4113C10.8428 13.8762 11.1171 13.3678 11.5652 13.0936C13.184 12.0702 15.0636 11.5351 16.9833 11.5351C18.903 11.5351 20.7759 12.0769 22.4014 13.0936C22.8495 13.3745 23.1238 13.8829 23.1238 14.418V17.2006H10.8428ZM19.6723 29.408C19.6723 30.8929 18.4682 32.0969 16.9833 32.0969C15.4983 32.0969 14.2943 30.8929 14.2943 29.408C14.2943 27.923 15.4983 26.719 16.9833 26.719C18.4682 26.719 19.6723 27.9297 19.6723 29.408ZM29.3913 32.1036C27.9064 32.1036 26.7024 30.8996 26.7024 29.4147C26.7024 27.9297 27.9064 26.7257 29.3913 26.7257C30.8763 26.7257 32.0803 27.9297 32.0803 29.4147C32.087 30.8929 30.8763 32.1036 29.3913 32.1036Z" fill="#00D29D"/>
</g>
<defs>
<clipPath id="clip0">
<rect width="34" height="34" fill="white"/>
</clipPath>
</defs>
</svg>
