<svg width="34" height="28" viewBox="0 0 34 28" fill="none" xmlns="http://www.w3.org/2000/svg">
<path d="M33.0039 4H29.9492V3C29.9492 2.44773 29.5032 2 28.9531 2H20.9844C19.471 2 18.1142 2.682 17.2 3.75487C16.0327 1.52473 13.7023 0 11.0234 0H9.03125C8.48114 0 8.03516 0.447733 8.03516 1V2H5.04688C4.49677 2 4.05078 2.44773 4.05078 3V4H0.996094C0.445984 4 0 4.44773 0 5V27C0 27.5523 0.445984 28 0.996094 28H33.0039C33.554 28 34 27.5523 34 27V5C34 4.44773 33.554 4 33.0039 4ZM20.9844 4H27.957V22H20.9844C19.8946 22 18.8472 22.369 17.9961 23.0175V7C17.9961 5.3458 19.3366 4 20.9844 4ZM10.0273 2H11.0234C13.7697 2 16.0039 4.243 16.0039 7V20.1057C14.7374 18.807 12.9726 18 11.0234 18H10.0273V2ZM6.04297 4H8.03516V19C8.03516 19.5523 8.48114 20 9.03125 20H11.0234C12.9145 20 14.5626 21.0637 15.4058 22.6263C14.6826 22.223 13.862 22 13.0156 22H6.04297V4ZM1.99219 26V6H4.05078V23C4.05078 23.5523 4.49677 24 5.04688 24H13.0156C14.0798 24 15.0409 24.5619 15.5864 25.503C15.7648 25.8107 16.0927 26 16.4473 26H1.99219ZM32.0078 26H17.5526C17.9072 26 18.2352 25.8107 18.4135 25.503C18.9591 24.5619 19.9202 24 20.9844 24H28.9531C29.5032 24 29.9492 23.5523 29.9492 23V6H32.0078V26Z" fill="#00D29D"/>
</svg>
