<svg width="100" height="100" viewBox="0 0 100 100" fill="none" xmlns="http://www.w3.org/2000/svg">
<path fill-rule="evenodd" clip-rule="evenodd" d="M96.0483 69.5153C98.5926 63.5192 100 56.924 100 50C100 22.3858 77.6142 0 50 0C22.3858 0 0 22.3858 0 50C0 77.6142 22.3858 100 50 100C56.3711 100 62.4639 98.8084 68.0676 96.6359C64.3301 93.0832 62 88.0637 62 82.5C62 71.7305 70.7304 63 81.5 63C87.2826 63 92.4773 65.5171 96.0483 69.5153Z" fill="#C5C5C5"/>
<circle cx="82" cy="83" r="15" fill="white" stroke="#CCCCCC"/>
<path d="M88.8749 77.0826H87.0921L86.4194 75.7329C85.8866 74.664 84.8156 74 83.6243 74H80.3755C79.1841 74 78.1131 74.664 77.5803 75.7329L76.9076 77.0826H75.1249C73.4018 77.0826 71.9999 78.4889 71.9999 80.2174V87.8652C71.9999 89.5937 73.4018 91 75.1249 91H88.8749C90.598 91 91.9999 89.5937 91.9999 87.8652V80.2174C91.9999 78.4888 90.598 77.0826 88.8749 77.0826ZM90.4374 87.8652C90.4374 88.7294 89.7364 89.4326 88.8749 89.4326H75.1249C74.2633 89.4326 73.5624 88.7294 73.5624 87.8652V80.2174C73.5624 79.3531 74.2633 78.65 75.1249 78.65H77.3905C77.6864 78.65 77.9569 78.4823 78.0893 78.2168L78.978 76.4339C79.2443 75.8994 79.7798 75.5674 80.3755 75.5674H83.6243C84.22 75.5674 84.7555 75.8994 85.0218 76.4339L85.9105 78.2168C86.0428 78.4823 86.3133 78.65 86.6093 78.65H88.8749C89.7364 78.65 90.4374 79.3531 90.4374 80.2174V87.8652ZM81.9999 79.3815C79.8747 79.3815 78.1457 81.1159 78.1457 83.2478C78.1457 85.3797 79.8747 87.1141 81.9999 87.1141C84.1251 87.1141 85.8541 85.3797 85.8541 83.2478C85.8541 81.1159 84.1251 79.3815 81.9999 79.3815ZM81.9999 85.5467C80.7362 85.5467 79.7082 84.5154 79.7082 83.2478C79.7082 81.9801 80.7362 80.9489 81.9999 80.9489C83.2635 80.9489 84.2916 81.9801 84.2916 83.2478C84.2916 84.5154 83.2635 85.5467 81.9999 85.5467Z" fill="#C6C6C6"/>
</svg>
